<mxfile host="app.diagrams.net" modified="2023-10-10T14:08:22.750Z" agent="Mozilla/5.0 (X11; Linux x86_64; rv:109.0) Gecko/20100101 Firefox/118.0" etag="KCZaPdH2yL29cm_Wv6Pc" version="21.3.7">
  <diagram name="Page-1" id="2YBvvXClWsGukQMizWep">
    <mxGraphModel dx="988" dy="548" grid="1" gridSize="10" guides="1" tooltips="1" connect="1" arrows="1" fold="1" page="1" pageScale="1" pageWidth="850" pageHeight="1100" math="0" shadow="0">
      <root>
        <mxCell id="0" />
        <mxCell id="1" parent="0" />
        <mxCell id="aM9ryv3xv72pqoxQDRHE-1" value="Compute Queue" style="shape=umlLifeline;perimeter=lifelinePerimeter;whiteSpace=wrap;html=1;container=0;dropTarget=0;collapsible=0;recursiveResize=0;outlineConnect=0;portConstraint=eastwest;newEdgeStyle={&quot;edgeStyle&quot;:&quot;elbowEdgeStyle&quot;,&quot;elbow&quot;:&quot;vertical&quot;,&quot;curved&quot;:0,&quot;rounded&quot;:0};" parent="1" vertex="1">
          <mxGeometry x="40" y="10" width="100" height="330" as="geometry" />
        </mxCell>
        <mxCell id="sK_q_8EyxBzJU_uGf2SQ-1" value="" style="rounded=0;whiteSpace=wrap;html=1;fillStyle=auto;" vertex="1" parent="1">
          <mxGeometry x="80" y="120" width="20" height="20" as="geometry" />
        </mxCell>
        <mxCell id="sK_q_8EyxBzJU_uGf2SQ-7" value="Copy Queue" style="shape=umlLifeline;perimeter=lifelinePerimeter;whiteSpace=wrap;html=1;container=0;dropTarget=0;collapsible=0;recursiveResize=0;outlineConnect=0;portConstraint=eastwest;newEdgeStyle={&quot;edgeStyle&quot;:&quot;elbowEdgeStyle&quot;,&quot;elbow&quot;:&quot;vertical&quot;,&quot;curved&quot;:0,&quot;rounded&quot;:0};" vertex="1" parent="1">
          <mxGeometry x="160" y="10" width="100" height="330" as="geometry" />
        </mxCell>
        <mxCell id="sK_q_8EyxBzJU_uGf2SQ-8" value="" style="rounded=0;whiteSpace=wrap;html=1;" vertex="1" parent="1">
          <mxGeometry x="200" y="180" width="20" height="30" as="geometry" />
        </mxCell>
        <mxCell id="sK_q_8EyxBzJU_uGf2SQ-15" value="copy event" style="html=1;verticalAlign=bottom;endArrow=open;dashed=1;endSize=8;edgeStyle=elbowEdgeStyle;elbow=vertical;curved=0;rounded=0;entryX=1;entryY=0;entryDx=0;entryDy=0;exitX=0;exitY=1;exitDx=0;exitDy=0;" edge="1" parent="1" source="sK_q_8EyxBzJU_uGf2SQ-8" target="sK_q_8EyxBzJU_uGf2SQ-20">
          <mxGeometry relative="1" as="geometry">
            <mxPoint x="240" y="230" as="sourcePoint" />
            <mxPoint x="100" y="230" as="targetPoint" />
          </mxGeometry>
        </mxCell>
        <mxCell id="sK_q_8EyxBzJU_uGf2SQ-16" value="" style="rounded=0;whiteSpace=wrap;html=1;" vertex="1" parent="1">
          <mxGeometry x="80" y="140" width="20" height="20" as="geometry" />
        </mxCell>
        <mxCell id="sK_q_8EyxBzJU_uGf2SQ-17" value="" style="rounded=0;whiteSpace=wrap;html=1;" vertex="1" parent="1">
          <mxGeometry x="80" y="160" width="20" height="20" as="geometry" />
        </mxCell>
        <mxCell id="sK_q_8EyxBzJU_uGf2SQ-20" value="" style="rounded=0;whiteSpace=wrap;html=1;" vertex="1" parent="1">
          <mxGeometry x="80" y="210" width="20" height="20" as="geometry" />
        </mxCell>
        <mxCell id="sK_q_8EyxBzJU_uGf2SQ-21" value="" style="rounded=0;whiteSpace=wrap;html=1;" vertex="1" parent="1">
          <mxGeometry x="80" y="230" width="20" height="20" as="geometry" />
        </mxCell>
        <mxCell id="sK_q_8EyxBzJU_uGf2SQ-22" value="" style="rounded=0;whiteSpace=wrap;html=1;" vertex="1" parent="1">
          <mxGeometry x="80" y="250" width="20" height="20" as="geometry" />
        </mxCell>
        <mxCell id="sK_q_8EyxBzJU_uGf2SQ-23" value="Read Queue" style="shape=umlLifeline;perimeter=lifelinePerimeter;whiteSpace=wrap;html=1;container=0;dropTarget=0;collapsible=0;recursiveResize=0;outlineConnect=0;portConstraint=eastwest;newEdgeStyle={&quot;edgeStyle&quot;:&quot;elbowEdgeStyle&quot;,&quot;elbow&quot;:&quot;vertical&quot;,&quot;curved&quot;:0,&quot;rounded&quot;:0};" vertex="1" parent="1">
          <mxGeometry x="280" y="10" width="100" height="330" as="geometry" />
        </mxCell>
        <mxCell id="sK_q_8EyxBzJU_uGf2SQ-24" value="" style="rounded=0;whiteSpace=wrap;html=1;" vertex="1" parent="1">
          <mxGeometry x="320" y="210" width="20" height="70" as="geometry" />
        </mxCell>
        <mxCell id="sK_q_8EyxBzJU_uGf2SQ-27" value="" style="rounded=0;whiteSpace=wrap;html=1;" vertex="1" parent="1">
          <mxGeometry x="200" y="270" width="20" height="30" as="geometry" />
        </mxCell>
        <mxCell id="sK_q_8EyxBzJU_uGf2SQ-28" value="copy event" style="html=1;verticalAlign=bottom;endArrow=open;dashed=1;endSize=8;edgeStyle=elbowEdgeStyle;elbow=vertical;curved=0;rounded=0;entryX=1;entryY=0;entryDx=0;entryDy=0;exitX=0;exitY=1;exitDx=0;exitDy=0;" edge="1" source="sK_q_8EyxBzJU_uGf2SQ-27" parent="1">
          <mxGeometry relative="1" as="geometry">
            <mxPoint x="240" y="320" as="sourcePoint" />
            <mxPoint x="100" y="300" as="targetPoint" />
          </mxGeometry>
        </mxCell>
        <mxCell id="sK_q_8EyxBzJU_uGf2SQ-29" value="" style="rounded=0;whiteSpace=wrap;html=1;" vertex="1" parent="1">
          <mxGeometry x="80" y="300" width="20" height="20" as="geometry" />
        </mxCell>
        <mxCell id="sK_q_8EyxBzJU_uGf2SQ-30" value="" style="rounded=0;whiteSpace=wrap;html=1;" vertex="1" parent="1">
          <mxGeometry x="80" y="320" width="20" height="20" as="geometry" />
        </mxCell>
        <mxCell id="sK_q_8EyxBzJU_uGf2SQ-31" value="" style="rounded=0;whiteSpace=wrap;html=1;" vertex="1" parent="1">
          <mxGeometry x="320" y="300" width="20" height="60" as="geometry" />
        </mxCell>
        <mxCell id="sK_q_8EyxBzJU_uGf2SQ-33" value="Worker thread" style="shape=umlLifeline;perimeter=lifelinePerimeter;whiteSpace=wrap;html=1;container=0;dropTarget=0;collapsible=0;recursiveResize=0;outlineConnect=0;portConstraint=eastwest;newEdgeStyle={&quot;edgeStyle&quot;:&quot;elbowEdgeStyle&quot;,&quot;elbow&quot;:&quot;vertical&quot;,&quot;curved&quot;:0,&quot;rounded&quot;:0};" vertex="1" parent="1">
          <mxGeometry x="400" y="10" width="100" height="330" as="geometry" />
        </mxCell>
        <mxCell id="sK_q_8EyxBzJU_uGf2SQ-34" value="compute event" style="html=1;verticalAlign=bottom;endArrow=open;edgeStyle=elbowEdgeStyle;elbow=vertical;curved=0;rounded=0;exitX=1;exitY=1;exitDx=0;exitDy=0;entryX=0;entryY=0;entryDx=0;entryDy=0;endFill=0;" edge="1" parent="1" source="sK_q_8EyxBzJU_uGf2SQ-17" target="sK_q_8EyxBzJU_uGf2SQ-8">
          <mxGeometry width="80" relative="1" as="geometry">
            <mxPoint x="100" y="410" as="sourcePoint" />
            <mxPoint x="180" y="410" as="targetPoint" />
          </mxGeometry>
        </mxCell>
        <mxCell id="sK_q_8EyxBzJU_uGf2SQ-35" value="compute event" style="html=1;verticalAlign=bottom;endArrow=open;edgeStyle=elbowEdgeStyle;elbow=vertical;curved=0;rounded=0;exitX=1;exitY=1;exitDx=0;exitDy=0;endFill=0;" edge="1" parent="1" source="sK_q_8EyxBzJU_uGf2SQ-17">
          <mxGeometry x="0.4737" width="80" relative="1" as="geometry">
            <mxPoint x="100" y="180" as="sourcePoint" />
            <mxPoint x="200" y="270" as="targetPoint" />
            <Array as="points">
              <mxPoint x="140" y="270" />
            </Array>
            <mxPoint as="offset" />
          </mxGeometry>
        </mxCell>
        <mxCell id="sK_q_8EyxBzJU_uGf2SQ-36" value="copy event" style="html=1;verticalAlign=bottom;endArrow=open;edgeStyle=elbowEdgeStyle;elbow=vertical;curved=0;rounded=0;exitX=1;exitY=1;exitDx=0;exitDy=0;entryX=0;entryY=0;entryDx=0;entryDy=0;endFill=0;" edge="1" parent="1">
          <mxGeometry x="-0.0019" width="80" relative="1" as="geometry">
            <mxPoint x="220" y="210" as="sourcePoint" />
            <mxPoint x="320" y="210" as="targetPoint" />
            <mxPoint as="offset" />
          </mxGeometry>
        </mxCell>
        <mxCell id="sK_q_8EyxBzJU_uGf2SQ-37" value="copy event" style="html=1;verticalAlign=bottom;endArrow=open;edgeStyle=elbowEdgeStyle;elbow=vertical;curved=0;rounded=0;exitX=1;exitY=1;exitDx=0;exitDy=0;entryX=0;entryY=0;entryDx=0;entryDy=0;endFill=0;" edge="1" parent="1">
          <mxGeometry x="-0.0019" width="80" relative="1" as="geometry">
            <mxPoint x="220" y="299.52" as="sourcePoint" />
            <mxPoint x="320" y="299.52" as="targetPoint" />
            <mxPoint as="offset" />
          </mxGeometry>
        </mxCell>
        <mxCell id="sK_q_8EyxBzJU_uGf2SQ-38" value="" style="rounded=0;whiteSpace=wrap;html=1;" vertex="1" parent="1">
          <mxGeometry x="440" y="280" width="20" height="50" as="geometry" />
        </mxCell>
        <mxCell id="sK_q_8EyxBzJU_uGf2SQ-39" value="&lt;div&gt;read event&lt;/div&gt;&lt;div&gt;callback&lt;br&gt;&lt;/div&gt;" style="html=1;verticalAlign=bottom;endArrow=open;edgeStyle=elbowEdgeStyle;elbow=vertical;curved=0;rounded=0;exitX=1;exitY=1;exitDx=0;exitDy=0;entryX=0;entryY=0;entryDx=0;entryDy=0;endFill=0;" edge="1" parent="1">
          <mxGeometry x="-0.002" width="80" relative="1" as="geometry">
            <mxPoint x="340" y="279.76" as="sourcePoint" />
            <mxPoint x="440" y="279.76" as="targetPoint" />
            <mxPoint as="offset" />
          </mxGeometry>
        </mxCell>
        <mxCell id="sK_q_8EyxBzJU_uGf2SQ-40" value="Main thread" style="shape=umlLifeline;perimeter=lifelinePerimeter;whiteSpace=wrap;html=1;container=0;dropTarget=0;collapsible=0;recursiveResize=0;outlineConnect=0;portConstraint=eastwest;newEdgeStyle={&quot;edgeStyle&quot;:&quot;elbowEdgeStyle&quot;,&quot;elbow&quot;:&quot;vertical&quot;,&quot;curved&quot;:0,&quot;rounded&quot;:0};" vertex="1" parent="1">
          <mxGeometry x="520" y="10" width="100" height="330" as="geometry" />
        </mxCell>
        <mxCell id="sK_q_8EyxBzJU_uGf2SQ-41" value="&lt;div&gt;image write&lt;/div&gt;&lt;div&gt;finished&lt;/div&gt;" style="html=1;verticalAlign=bottom;endArrow=open;edgeStyle=elbowEdgeStyle;elbow=vertical;curved=0;rounded=0;exitX=1;exitY=1;exitDx=0;exitDy=0;endFill=0;dashed=1;" edge="1" parent="1">
          <mxGeometry x="-0.002" width="80" relative="1" as="geometry">
            <mxPoint x="460" y="330" as="sourcePoint" />
            <mxPoint x="569.5" y="330.0952380952381" as="targetPoint" />
            <mxPoint as="offset" />
          </mxGeometry>
        </mxCell>
        <mxCell id="sK_q_8EyxBzJU_uGf2SQ-43" value="computing the next simulation state" style="shape=note2;boundedLbl=1;whiteSpace=wrap;size=25;verticalAlign=middle;align=left;fontSize=9;fillColor=#fff2cc;strokeColor=#d6b656;fontColor=#000000;" vertex="1" parent="1">
          <mxGeometry x="10" y="380" width="120" height="40" as="geometry" />
        </mxCell>
        <mxCell id="sK_q_8EyxBzJU_uGf2SQ-44" value="" style="endArrow=none;dashed=1;html=1;dashPattern=1 1;strokeWidth=2;rounded=0;exitX=0.5;exitY=0;exitDx=0;exitDy=0;exitPerimeter=0;entryX=0;entryY=1;entryDx=0;entryDy=0;" edge="1" parent="1" source="sK_q_8EyxBzJU_uGf2SQ-43" target="sK_q_8EyxBzJU_uGf2SQ-30">
          <mxGeometry width="50" height="50" relative="1" as="geometry">
            <mxPoint x="240" y="260" as="sourcePoint" />
            <mxPoint x="290" y="210" as="targetPoint" />
          </mxGeometry>
        </mxCell>
        <mxCell id="sK_q_8EyxBzJU_uGf2SQ-45" value="copying the simulation&#xa;state from image to&#xa;buffer" style="shape=note2;boundedLbl=1;whiteSpace=wrap;size=25;verticalAlign=middle;align=left;fontSize=9;fillColor=#fff2cc;strokeColor=#d6b656;fontColor=#000000;" vertex="1" parent="1">
          <mxGeometry x="150" y="380" width="120" height="40" as="geometry" />
        </mxCell>
        <mxCell id="sK_q_8EyxBzJU_uGf2SQ-46" value="" style="endArrow=none;dashed=1;html=1;dashPattern=1 1;strokeWidth=2;rounded=0;exitX=0.182;exitY=-0.06;exitDx=0;exitDy=0;exitPerimeter=0;entryX=0;entryY=1;entryDx=0;entryDy=0;" edge="1" parent="1" source="sK_q_8EyxBzJU_uGf2SQ-45" target="sK_q_8EyxBzJU_uGf2SQ-27">
          <mxGeometry width="50" height="50" relative="1" as="geometry">
            <mxPoint x="180" y="370" as="sourcePoint" />
            <mxPoint x="190" y="330" as="targetPoint" />
          </mxGeometry>
        </mxCell>
        <mxCell id="sK_q_8EyxBzJU_uGf2SQ-47" value="reading the buffer&#39;s&#xa;contents to host&#xa;memory" style="shape=note2;boundedLbl=1;whiteSpace=wrap;size=25;verticalAlign=middle;align=left;fontSize=9;fillColor=#fff2cc;strokeColor=#d6b656;fontColor=#000000;" vertex="1" parent="1">
          <mxGeometry x="300" y="380" width="120" height="40" as="geometry" />
        </mxCell>
        <mxCell id="sK_q_8EyxBzJU_uGf2SQ-48" value="" style="endArrow=none;dashed=1;html=1;dashPattern=1 1;strokeWidth=2;rounded=0;exitX=0;exitY=0;exitDx=47.5;exitDy=0;exitPerimeter=0;entryX=1;entryY=1;entryDx=0;entryDy=0;" edge="1" parent="1" source="sK_q_8EyxBzJU_uGf2SQ-47" target="sK_q_8EyxBzJU_uGf2SQ-31">
          <mxGeometry width="50" height="50" relative="1" as="geometry">
            <mxPoint x="187" y="388" as="sourcePoint" />
            <mxPoint x="210" y="310" as="targetPoint" />
          </mxGeometry>
        </mxCell>
        <mxCell id="sK_q_8EyxBzJU_uGf2SQ-49" value="writing image file" style="shape=note2;boundedLbl=1;whiteSpace=wrap;size=25;verticalAlign=middle;align=left;fontSize=9;fillColor=#fff2cc;strokeColor=#d6b656;fontColor=#000000;" vertex="1" parent="1">
          <mxGeometry x="440" y="380" width="110" height="40" as="geometry" />
        </mxCell>
        <mxCell id="sK_q_8EyxBzJU_uGf2SQ-50" value="" style="endArrow=none;dashed=1;html=1;dashPattern=1 1;strokeWidth=2;rounded=0;exitX=0;exitY=0;exitDx=42.5;exitDy=0;exitPerimeter=0;entryX=1;entryY=1;entryDx=0;entryDy=0;" edge="1" parent="1" source="sK_q_8EyxBzJU_uGf2SQ-49" target="sK_q_8EyxBzJU_uGf2SQ-38">
          <mxGeometry width="50" height="50" relative="1" as="geometry">
            <mxPoint x="368" y="390" as="sourcePoint" />
            <mxPoint x="350" y="370" as="targetPoint" />
          </mxGeometry>
        </mxCell>
        <mxCell id="sK_q_8EyxBzJU_uGf2SQ-51" value="" style="rounded=0;whiteSpace=wrap;html=1;" vertex="1" parent="1">
          <mxGeometry x="80" y="180" width="20" height="20" as="geometry" />
        </mxCell>
        <mxCell id="sK_q_8EyxBzJU_uGf2SQ-52" value="" style="rounded=0;whiteSpace=wrap;html=1;" vertex="1" parent="1">
          <mxGeometry x="80" y="270" width="20" height="20" as="geometry" />
        </mxCell>
        <mxCell id="sK_q_8EyxBzJU_uGf2SQ-54" value="" style="rounded=0;whiteSpace=wrap;html=1;fillStyle=auto;" vertex="1" parent="1">
          <mxGeometry x="80" y="90" width="20" height="20" as="geometry" />
        </mxCell>
        <mxCell id="sK_q_8EyxBzJU_uGf2SQ-55" value="" style="rounded=0;whiteSpace=wrap;html=1;" vertex="1" parent="1">
          <mxGeometry x="200" y="90" width="20" height="30" as="geometry" />
        </mxCell>
        <mxCell id="sK_q_8EyxBzJU_uGf2SQ-56" value="compute event" style="html=1;verticalAlign=bottom;endArrow=open;edgeStyle=elbowEdgeStyle;elbow=vertical;curved=0;rounded=0;exitX=1;exitY=1;exitDx=0;exitDy=0;entryX=0;entryY=0;entryDx=0;entryDy=0;endFill=0;" edge="1" target="sK_q_8EyxBzJU_uGf2SQ-55" parent="1">
          <mxGeometry width="80" relative="1" as="geometry">
            <mxPoint x="100" y="90" as="sourcePoint" />
            <mxPoint x="180" y="320" as="targetPoint" />
          </mxGeometry>
        </mxCell>
        <mxCell id="sK_q_8EyxBzJU_uGf2SQ-57" value="copy event" style="html=1;verticalAlign=bottom;endArrow=open;dashed=1;endSize=8;edgeStyle=elbowEdgeStyle;elbow=vertical;curved=0;rounded=0;entryX=1;entryY=0;entryDx=0;entryDy=0;exitX=0;exitY=1;exitDx=0;exitDy=0;" edge="1" parent="1">
          <mxGeometry relative="1" as="geometry">
            <mxPoint x="200" y="120" as="sourcePoint" />
            <mxPoint x="100" y="120" as="targetPoint" />
          </mxGeometry>
        </mxCell>
        <mxCell id="sK_q_8EyxBzJU_uGf2SQ-58" value="copy event" style="html=1;verticalAlign=bottom;endArrow=open;edgeStyle=elbowEdgeStyle;elbow=vertical;curved=0;rounded=0;exitX=1;exitY=1;exitDx=0;exitDy=0;entryX=0;entryY=0;entryDx=0;entryDy=0;endFill=0;" edge="1" parent="1">
          <mxGeometry x="-0.0019" width="80" relative="1" as="geometry">
            <mxPoint x="220" y="120" as="sourcePoint" />
            <mxPoint x="320" y="120" as="targetPoint" />
            <mxPoint as="offset" />
          </mxGeometry>
        </mxCell>
        <mxCell id="sK_q_8EyxBzJU_uGf2SQ-59" value="" style="rounded=0;whiteSpace=wrap;html=1;" vertex="1" parent="1">
          <mxGeometry x="320" y="120" width="20" height="70" as="geometry" />
        </mxCell>
        <mxCell id="sK_q_8EyxBzJU_uGf2SQ-60" value="&lt;div&gt;read event&lt;/div&gt;&lt;div&gt;callback&lt;br&gt;&lt;/div&gt;" style="html=1;verticalAlign=bottom;endArrow=open;edgeStyle=elbowEdgeStyle;elbow=vertical;curved=0;rounded=0;exitX=1;exitY=1;exitDx=0;exitDy=0;entryX=0;entryY=0;entryDx=0;entryDy=0;endFill=0;" edge="1" parent="1">
          <mxGeometry x="-0.002" width="80" relative="1" as="geometry">
            <mxPoint x="340" y="189.76" as="sourcePoint" />
            <mxPoint x="440" y="189.76" as="targetPoint" />
            <mxPoint as="offset" />
          </mxGeometry>
        </mxCell>
        <mxCell id="sK_q_8EyxBzJU_uGf2SQ-61" value="" style="rounded=0;whiteSpace=wrap;html=1;" vertex="1" parent="1">
          <mxGeometry x="440" y="190" width="20" height="50" as="geometry" />
        </mxCell>
        <mxCell id="sK_q_8EyxBzJU_uGf2SQ-62" value="&lt;div&gt;image write&lt;/div&gt;&lt;div&gt;finished&lt;/div&gt;" style="html=1;verticalAlign=bottom;endArrow=open;edgeStyle=elbowEdgeStyle;elbow=vertical;curved=0;rounded=0;exitX=1;exitY=1;exitDx=0;exitDy=0;endFill=0;dashed=1;" edge="1" parent="1">
          <mxGeometry x="-0.002" width="80" relative="1" as="geometry">
            <mxPoint x="460" y="240" as="sourcePoint" />
            <mxPoint x="569.5" y="240.09523809523807" as="targetPoint" />
            <mxPoint as="offset" />
          </mxGeometry>
        </mxCell>
        <mxCell id="sK_q_8EyxBzJU_uGf2SQ-63" value="&lt;div&gt;start&lt;/div&gt;&lt;div&gt;iteration&lt;br&gt;&lt;/div&gt;" style="html=1;verticalAlign=bottom;startArrow=oval;startFill=1;endArrow=block;startSize=8;edgeStyle=elbowEdgeStyle;elbow=vertical;curved=0;rounded=0;" edge="1" parent="1">
          <mxGeometry width="60" relative="1" as="geometry">
            <mxPoint x="20" y="89.52000000000001" as="sourcePoint" />
            <mxPoint x="80" y="89.52000000000001" as="targetPoint" />
          </mxGeometry>
        </mxCell>
      </root>
    </mxGraphModel>
  </diagram>
</mxfile>
